<svg width="24" height="19" viewBox="0 0 24 19" fill="none" xmlns="http://www.w3.org/2000/svg">
<g clip-path="url(#clip0_4085_1159)">
<path d="M23.7749 17.4785L1.34988 0.130254C1.28837 0.0815214 1.21777 0.0452545 1.14209 0.0235242C1.06642 0.00179386 0.987167 -0.00497434 0.908852 0.00360601C0.830537 0.0121864 0.754698 0.0359472 0.685662 0.073532C0.616627 0.111117 0.555749 0.161789 0.506503 0.222656L0.131503 0.686153C0.0821419 0.747041 0.0453978 0.816963 0.0233733 0.891919C0.00134889 0.966875 -0.00552354 1.04539 0.00314927 1.12298C0.0118221 1.20057 0.0358699 1.2757 0.0739167 1.34408C0.111964 1.41246 0.163262 1.47274 0.224878 1.52148L22.6499 18.8697C22.7114 18.9185 22.782 18.9547 22.8577 18.9765C22.9333 18.9982 23.0126 19.005 23.0909 18.9964C23.1692 18.9878 23.2451 18.9641 23.3141 18.9265C23.3831 18.8889 23.444 18.8382 23.4933 18.7773L23.8683 18.3138C23.9176 18.253 23.9544 18.183 23.9764 18.1081C23.9984 18.0331 24.0053 17.9546 23.9966 17.877C23.9879 17.7994 23.9639 17.7243 23.9258 17.6559C23.8878 17.5875 23.8365 17.5273 23.7749 17.4785ZM11.1295 5.43541L16.1841 9.346C16.1009 7.12166 14.2679 5.34375 11.9999 5.34375C11.7073 5.3443 11.4156 5.37502 11.1295 5.43541ZM12.8703 13.565L7.81563 9.65438C7.89925 11.8783 9.73225 13.6562 11.9999 13.6562C12.2924 13.6556 12.5841 13.625 12.8703 13.565ZM11.9999 4.15625C15.6993 4.15625 19.0908 6.19727 20.9223 9.5C20.4733 10.3128 19.9186 11.0639 19.2723 11.734L20.6875 12.8287C21.4754 11.9946 22.143 11.0566 22.6713 10.0414C22.757 9.8735 22.8017 9.68798 22.8017 9.49981C22.8017 9.31165 22.757 9.12613 22.6713 8.9582C20.6358 5.03166 16.6098 2.375 11.9999 2.375C10.6236 2.375 9.31075 2.63477 8.07625 3.07303L9.81663 4.41973C10.5269 4.26016 11.2544 4.15625 11.9999 4.15625ZM11.9999 14.8438C8.3005 14.8438 4.90938 12.8027 3.0775 9.5C3.52706 8.68718 4.08242 7.93624 4.72938 7.26639L3.31413 6.17166C2.52631 7.00569 1.85886 7.94355 1.33075 8.95857C1.24497 9.1265 1.20027 9.31202 1.20027 9.50019C1.20027 9.68835 1.24497 9.87387 1.33075 10.0418C3.36438 13.9683 7.39038 16.625 11.9999 16.625C13.3761 16.625 14.689 16.3634 15.9235 15.927L14.1831 14.5806C13.4729 14.7398 12.7458 14.8438 11.9999 14.8438Z" fill="black"/>
</g>
<defs>
<clipPath id="clip0_4085_1159">
<rect width="24" height="19" fill="white"/>
</clipPath>
</defs>
</svg>
