<svg width="52" height="52" viewBox="0 0 52 52" fill="none" xmlns="http://www.w3.org/2000/svg">
<g clip-path="url(#clip0_4077_284)">
<path d="M10.4474 4.25C10.4474 3.38805 10.7898 2.5614 11.3993 1.9519C12.0088 1.34241 12.8355 1 13.6974 1H20.1974C21.0594 1 21.886 1.34241 22.4955 1.9519C23.105 2.5614 23.4474 3.38805 23.4474 4.25V5.04625C21.3606 5.94575 19.6536 7.54591 18.6212 9.57025C16.8252 9.47655 15.0383 9.88141 13.4581 10.74C11.8779 11.5987 10.566 12.8777 9.66741 14.4355L6.41741 20.0645C5.51827 21.6217 5.06728 23.3973 5.11431 25.1948C5.16135 26.9924 5.70456 28.7419 6.68391 30.25C5.83062 31.5642 5.30666 33.0648 5.15641 34.6245C4.48731 34.7623 3.79181 34.6857 3.16871 34.4056C2.54562 34.1256 2.02661 33.6563 1.68541 33.0645L-1.56459 27.4355C-1.99555 26.689 -2.11233 25.802 -1.88926 24.9694C-1.66619 24.1368 -1.12153 23.427 -0.375089 22.996L0.281411 22.6157C0.417401 22.5347 0.527893 22.4171 0.600293 22.2763C0.672694 22.1355 0.704093 21.9773 0.690911 21.8195C0.619364 20.9413 0.619364 20.0587 0.690911 19.1805C0.704093 19.0227 0.672694 18.8645 0.600293 18.7237C0.527893 18.5829 0.417401 18.4653 0.281411 18.3842L-0.375089 18.004C-1.12153 17.573 -1.66619 16.8632 -1.88926 16.0306C-2.11233 15.198 -1.99555 14.311 -1.56459 13.5645L1.68541 7.9355C2.1164 7.18906 2.82625 6.6444 3.65881 6.42133C4.49138 6.19825 5.37846 6.31504 6.12491 6.746L6.80741 7.136C7.08366 7.2985 7.43141 7.279 7.69791 7.097C8.41291 6.60517 9.16799 6.17183 9.96316 5.797C10.1071 5.72983 10.2291 5.62347 10.3153 5.49011C10.4016 5.35675 10.4485 5.20179 10.4507 5.043L10.4474 4.25Z" fill="#252525"/>
<path d="M27.3118 10.75C26.4498 10.75 25.6231 11.0924 25.0137 11.7019C24.4042 12.3114 24.0618 13.138 24.0618 14V14.793C24.0618 15.118 23.8667 15.4105 23.5742 15.547C22.7855 15.9189 22.028 16.3536 21.309 16.847C21.1793 16.9363 21.0271 16.9877 20.8698 16.9951C20.7124 17.0026 20.5561 16.9659 20.4185 16.8892L19.736 16.496C18.9895 16.065 18.1025 15.9483 17.2699 16.1713C16.4373 16.3944 15.7275 16.9391 15.2965 17.6855L12.0465 23.3145C11.6155 24.061 11.4988 24.948 11.7218 25.7806C11.9449 26.6132 12.4896 27.323 13.236 27.754L13.8925 28.1343C14.172 28.2968 14.328 28.6055 14.302 28.9305C14.2305 29.8087 14.2305 30.6913 14.302 31.5695C14.328 31.8945 14.172 32.2065 13.8925 32.3657L13.236 32.746C12.4896 33.177 11.9449 33.8868 11.7218 34.7194C11.4988 35.552 11.6155 36.439 12.0465 37.1855L15.2965 42.8145C15.7275 43.5609 16.4373 44.1056 17.2699 44.3287C18.1025 44.5517 18.9895 44.435 19.736 44.004L20.4185 43.614C20.5558 43.5369 20.712 43.4996 20.8693 43.5065C21.0267 43.5134 21.179 43.5642 21.309 43.653C22.024 44.1448 22.7791 44.5782 23.5742 44.953C23.7181 45.0202 23.8402 45.1265 23.9264 45.2599C24.0127 45.3933 24.0596 45.5482 24.0618 45.707V46.5C24.0618 47.362 24.4042 48.1886 25.0137 48.7981C25.6231 49.4076 26.4498 49.75 27.3118 49.75H33.8117C34.6737 49.75 35.5004 49.4076 36.1098 48.7981C36.7193 48.1886 37.0617 47.362 37.0617 46.5V45.6518C37.0617 45.3268 37.2503 45.0375 37.5395 44.901C38.3087 44.5305 39.0432 44.1026 39.743 43.6172C39.8731 43.5273 40.0258 43.4756 40.1838 43.4681C40.3418 43.4607 40.4988 43.4977 40.6368 43.575L41.3843 44.004C42.1307 44.435 43.0178 44.5517 43.8503 44.3287C44.6829 44.1056 45.3928 43.5609 45.8237 42.8145L49.0737 37.1855C49.5047 36.439 49.6215 35.552 49.3984 34.7194C49.1754 33.8868 48.6307 33.177 47.8843 32.746L47.1107 32.3007C46.9753 32.22 46.8651 32.1029 46.7928 31.9627C46.7204 31.8226 46.6887 31.665 46.7012 31.5077C46.7662 30.6705 46.7662 29.8295 46.7012 28.9923C46.6887 28.835 46.7204 28.6774 46.7928 28.5373C46.8651 28.3971 46.9753 28.28 47.1107 28.1993L47.8843 27.754C48.6307 27.323 49.1754 26.6132 49.3984 25.7806C49.6215 24.948 49.5047 24.061 49.0737 23.3145L45.8237 17.6855C45.3928 16.9391 44.6829 16.3944 43.8503 16.1713C43.0178 15.9483 42.1307 16.065 41.3843 16.496L40.6368 16.925C40.4988 17.0023 40.3418 17.0393 40.1838 17.0319C40.0258 17.0244 39.8731 16.9727 39.743 16.8828C39.0433 16.3978 38.3065 15.9685 37.5395 15.599C37.3978 15.5314 37.2777 15.4256 37.1928 15.2936C37.1078 15.1616 37.0613 15.0085 37.0585 14.8515V14C37.0585 13.138 36.7161 12.3114 36.1066 11.7019C35.4971 11.0924 34.6705 10.75 33.8085 10.75H27.3085H27.3118ZM37 30.25C37 31.9739 36.3152 33.6272 35.0962 34.8462C33.8772 36.0652 32.2239 36.75 30.5 36.75C28.7761 36.75 27.1228 36.0652 25.9038 34.8462C24.6848 33.6272 24 31.9739 24 30.25C24 28.5261 24.6848 26.8728 25.9038 25.6538C27.1228 24.4348 28.7761 23.75 30.5 23.75C32.2239 23.75 33.8772 24.4348 35.0962 25.6538C36.3152 26.8728 37 28.5261 37 30.25Z" fill="#252525"/>
</g>
<defs>
<clipPath id="clip0_4077_284">
<rect width="52" height="52" fill="white"/>
</clipPath>
</defs>
</svg>
