<svg width="53" height="52" viewBox="0 0 53 52" fill="none" xmlns="http://www.w3.org/2000/svg">
<g clip-path="url(#clip0_4077_193)">
<path d="M0.666504 13.884V23.1357H10.4078L13.3545 13.884H0.666504ZM13.3545 13.884L16.3835 23.1357H26.1248V13.884H13.3545ZM26.1248 23.1357L18.2663 28.8644L21.2953 38.116H26.127L26.1248 23.1357ZM21.2953 38.116L13.3545 32.3852L5.496 38.116H21.2953ZM5.496 38.116L8.525 28.8644L0.666504 23.1357V38.116H5.496ZM27.2082 13.884V23.1357H36.9495L39.8962 13.884H27.2082ZM39.8962 13.884L42.9252 23.1357H52.6665V13.884H39.8962ZM52.6665 23.1357L44.808 28.8644L47.837 38.116H52.6665V23.1357ZM47.837 38.116L39.8962 32.3852L32.0377 38.116H47.837ZM32.0377 38.116L35.0667 28.8644L27.2082 23.1357V38.116H32.0377Z" fill="#252525"/>
</g>
<defs>
<clipPath id="clip0_4077_193">
<rect width="52" height="52" fill="white" transform="translate(0.666504)"/>
</clipPath>
</defs>
</svg>
