<svg width="53" height="52" viewBox="0 0 53 52" fill="none" xmlns="http://www.w3.org/2000/svg">
<path d="M45.8333 26C45.8333 37.9665 41.3439 47.6667 35.8038 47.6667H19.0901C20.9686 46.4512 22.6781 44.3084 23.8568 41.7647C25.7483 37.674 26.8901 32.1014 26.8901 26C26.8901 19.8987 25.7483 14.326 23.8568 10.2354C22.6759 7.68954 20.9664 5.54671 19.0879 4.33337H35.8016C41.3439 4.33337 45.8333 14.0335 45.8333 26Z" fill="#252525"/>
<path fill-rule="evenodd" clip-rule="evenodd" d="M9.67159 11.1237C7.93825 14.8764 6.83325 20.1349 6.83325 26C6.83325 31.8652 7.93609 37.1237 9.67159 40.8764C11.4569 44.7287 13.6908 46.5834 15.7469 46.5834C17.8053 46.5834 20.0391 44.7287 21.8223 40.8764C23.5599 37.1237 24.6606 31.8674 24.6606 26C24.6606 20.1327 23.5599 14.8764 21.8223 11.1237C20.0391 7.27137 17.8053 5.41671 15.7469 5.41671C13.6886 5.41671 11.4569 7.27137 9.67159 11.1237ZM12.4038 26C12.4038 33.1804 13.9009 39 15.7469 39C17.4521 39 18.8583 34.0384 19.0641 27.625H16.8649C16.6483 27.6285 16.4331 27.5891 16.2318 27.5093C16.0304 27.4294 15.8467 27.3106 15.6914 27.1597C15.536 27.0087 15.4119 26.8286 15.3263 26.6296C15.2406 26.4306 15.1951 26.2167 15.1923 26C15.1951 25.7834 15.2406 25.5695 15.3263 25.3705C15.4119 25.1715 15.536 24.9914 15.6914 24.8404C15.8467 24.6895 16.0304 24.5707 16.2318 24.4908C16.4331 24.4109 16.6483 24.3716 16.8649 24.375H19.0663C18.8583 17.9617 17.4521 13 15.7491 13C13.8988 13 12.4038 18.8197 12.4038 26Z" fill="#252525"/>
</svg>
